Coordinates
version=1
nRows=15
nColumns=42
inDegrees=yes

Units are S.I. units (second, meters, Newtons, ...)
If the header above contains a line with 'inDegrees', this indicates whether rotational values are in degrees (yes) or radians (no).

endheader
time	pelvis_tilt	pelvis_list	pelvis_rotation	pelvis_tx	pelvis_ty	pelvis_tz	hip_flexion_r	hip_adduction_r	hip_rotation_r	knee_angle_r	knee_adduction_r	knee_angle_r_beta	ankle_angle_r	subtalar_angle_r	mtp_angle_r	hip_flexion_l	hip_adduction_l	hip_rotation_l	knee_angle_l	knee_adduction_l	knee_angle_l_beta	ankle_angle_l	subtalar_angle_l	mtp_angle_l	lumbar_extension	lumbar_bending	lumbar_rotation	arm_flex_r	arm_add_r	arm_rot_r	elbow_flex_r	pro_sup_r	wrist_flex_r	wrist_dev_r	arm_flex_l	arm_add_l	arm_rot_l	elbow_flex_l	pro_sup_l	wrist_flex_l	wrist_dev_l
      0.92000000	      0.15473572	     -2.66206291	     -7.62035703	     -0.18344550	      0.94909538	     -0.07007291	    -14.73550150	     -2.43993291	     -3.92581790	     13.14732669	      4.13873606	      0.22946414	     19.84045128	     25.47322297	     -7.75617058	     25.27868077	     -7.24058740	    -19.15834086	     13.19603835	     -2.23072703	      0.23031432	      2.21957386	     21.93358777	     -7.75617058	    -10.89089286	      0.29004718	      7.95261224	     10.30005907	    -20.09101418	     17.73724948	     42.74762070	     90.00000001	      0.00000000	      0.00000000	    -15.09019851	    -11.48405556	      5.25332637	     26.11170797	     90.00000001	      0.00000000	      0.00000000
      0.93000000	      0.07966518	     -2.44144176	     -7.78862606	     -0.17166543	      0.94863185	     -0.07083164	    -15.11785192	     -2.91234077	     -3.71090556	     13.52619982	      4.11977361	      0.23607672	     19.26299379	     25.45006531	     -7.75195435	     25.33626989	     -6.89338704	    -18.87154875	     14.13228060	     -2.46751276	      0.24665483	      1.40907938	     21.10641464	     -7.75195435	    -10.83551257	     -0.16125518	      8.04384149	     10.09895102	    -20.03631336	     17.81536160	     42.93853193	     90.00000001	      0.00000000	      0.00000000	    -15.19839761	    -11.47906518	      5.13049356	     25.97674154	     90.00000001	      0.00000000	      0.00000000
      0.94000000	      0.01321229	     -2.28960652	     -7.95392727	     -0.15977347	      0.94844280	     -0.07156645	    -15.45451239	     -3.21817551	     -3.32539088	     13.99602621	      3.93110642	      0.24427674	     18.94753455	     25.41394863	     -7.75050211	     25.27328369	     -6.59188625	    -18.25181450	     14.95399700	     -2.65773825	      0.26099648	      1.04857977	     20.98527458	     -7.75050211	    -10.80450862	     -0.53859926	      8.14181406	      9.81560211	    -19.93477806	     17.86052738	     42.94437660	     90.00000001	      0.00000000	      0.00000000	    -15.36784991	    -11.46680466	      5.10143040	     25.94623127	     90.00000001	      0.00000000	      0.00000000
      0.95000000	     -0.06929228	     -1.81233874	     -8.05342599	     -0.14783639	      0.94850410	     -0.07273065	    -15.62126030	     -4.04742620	     -3.27905414	     14.67573282	      4.07962867	      0.25613986	     17.61525521	     25.06995762	     -7.74428375	     25.34349158	     -5.93005955	    -17.95332157	     15.97048256	     -2.89489469	      0.27873750	     -0.32043113	     19.27746854	     -7.74428375	    -10.71482408	     -1.25171255	      8.13384312	      9.42006750	    -19.92889890	     17.86166227	     43.29435681	     90.00000001	      0.00000000	      0.00000000	    -15.21112998	    -11.48236608	      4.90677342	     25.69330762	     90.00000001	      0.00000000	      0.00000000
      0.96000000	     -0.18023494	     -1.42365259	     -8.06422508	     -0.13587984	      0.94888215	     -0.07386786	    -15.72206781	     -4.64519824	     -3.00486500	     15.40361738	      4.08508460	      0.26884384	     16.68223210	     24.59464397	     -7.72614228	     25.13179676	     -5.19506969	    -16.08404183	     16.53884600	     -2.78343090	      0.28865732	     -1.17915115	     16.28359375	     -7.72614228	    -10.62951172	     -1.87039972	      8.12777533	      8.89828547	    -19.86597195	     17.69115923	     43.59723189	     90.00000001	      0.00000000	      0.00000000	    -14.91126671	    -11.37343991	      4.27831114	     25.10298035	     90.00000001	      0.00000000	      0.00000000
      0.97000000	     -0.24091603	     -1.04279619	     -8.08634805	     -0.12375071	      0.94944461	     -0.07512301	    -15.74686918	     -5.27360204	     -2.82065540	     16.35744995	      4.10275465	      0.28549136	     15.48367043	     24.23046133	     -7.72269610	     25.11868972	     -4.63131391	    -15.69657420	     17.56544673	     -2.93579551	      0.30657488	     -1.38327166	     15.85865308	     -7.72269610	    -10.57947246	     -2.46265728	      8.05028400	      8.45052116	    -19.75121936	     17.69942451	     43.54467736	     90.00000001	      0.00000000	      0.00000000	    -14.85306044	    -11.38343468	      4.20936991	     25.11662655	     90.00000001	      0.00000000	      0.00000000
      0.98000000	     -0.32829404	     -0.61700470	     -8.08774450	     -0.11157385	      0.95025672	     -0.07641415	    -15.54884608	     -5.92743116	     -2.72908278	     17.63118365	      4.06625163	      0.30772221	     13.88074247	     23.69726477	     -7.71915903	     25.03552425	     -3.97619025	    -15.14755128	     18.45204998	     -3.04742927	      0.32204903	     -1.44975188	     15.00879076	     -7.71915903	    -10.48518686	     -3.11221108	      8.01343824	      7.93798465	    -19.61861084	     17.66296359	     43.52460332	     90.00000001	      0.00000000	      0.00000000	    -14.66170684	    -11.39096047	      4.15049415	     24.93126358	     90.00000001	      0.00000000	      0.00000000
      0.99000000	     -0.40859703	     -0.23860580	     -8.06105480	     -0.09943153	      0.95133346	     -0.07790701	    -15.20547992	     -6.55612304	     -2.57414265	     19.11239026	      4.07874508	      0.33357414	     12.21764236	     23.14731274	     -7.71577484	     24.85885371	     -3.35278161	    -14.42490807	     19.25614763	     -3.04057607	      0.33608318	     -1.28364426	     14.04126904	     -7.71577484	    -10.42387691	     -3.63842704	      7.88538132	      7.37780204	    -19.51913505	     17.59625392	     43.46241269	     90.00000001	      0.00000000	      0.00000000	    -14.35977414	    -11.40769882	      4.12936845	     24.74800640	     90.00000001	      0.00000000	      0.00000000
      1.00000000	     -0.54619595	      0.10203272	     -7.94806412	     -0.08737421	      0.95264987	     -0.07945999	    -14.60516243	     -7.12832206	     -2.42174592	     20.91263488	      4.13711444	      0.36499433	     10.35611707	     22.47223621	     -7.70271688	     24.48251393	     -2.65595341	    -12.66257803	     19.69097037	     -2.71213105	      0.34367227	     -1.41131157	     11.13808775	     -7.70271688	    -10.31498293	     -4.12675671	      7.77150707	      6.71314113	    -19.29957579	     17.18223435	     43.37755076	     90.00000001	      0.00000000	      0.00000000	    -13.83984492	    -11.33745378	      4.12529254	     24.14895038	     90.00000001	      0.00000000	      0.00000000
      1.01000000	     -0.60284082	      0.43832720	     -7.86286416	     -0.07522288	      0.95405467	     -0.08110402	    -13.86004038	     -7.75129816	     -2.29048125	     23.04963733	      4.21939407	      0.40229206	      8.25319142	     21.81659128	     -7.69983902	     24.13893852	     -2.07486788	    -12.33515445	     20.30180451	     -2.70923277	      0.35433333	     -0.77030359	     10.81384154	     -7.69983902	    -10.26547622	     -4.57934992	      7.57101858	      6.20070991	    -19.18225480	     17.20548358	     43.15618488	     90.00000001	      0.00000000	      0.00000000	    -13.56476549	    -11.35785198	      4.14273965	     24.15846525	     90.00000001	      0.00000000	      0.00000000
      1.02000000	     -0.72458685	      0.70207237	     -7.71151295	     -0.06322827	      0.95552529	     -0.08278866	    -12.82976232	     -8.24731816	     -2.16444357	     25.48483626	      4.24873881	      0.44479430	      5.97672540	     21.01835482	     -7.69663868	     23.76945564	     -1.55638177	    -11.97228538	     20.75540278	     -2.68003973	      0.36225012	     -0.13740884	     10.46582068	     -7.69663868	    -10.16123603	     -4.92997270	      7.31940730	      5.66644693	    -19.03228603	     17.23218538	     42.87614545	     90.00000001	      0.00000000	      0.00000000	    -13.18683041	    -11.37252742	      4.22580785	     24.08281711	     90.00000001	      0.00000000	      0.00000000
      1.03000000	     -0.83178087	      0.92157929	     -7.56325232	     -0.05137999	      0.95707933	     -0.08444865	    -11.62814883	     -8.67328892	     -1.86144522	     28.11910853	      4.28761678	      0.49077103	      3.81502814	     20.15443432	     -7.69406916	     23.27059416	     -1.10520273	    -11.76041001	     21.00840233	     -2.62560541	      0.36666579	      0.57061881	     10.30529325	     -7.69406916	    -10.07548946	     -5.21667578	      7.05926013	      5.16533087	    -18.87573171	     17.28380725	     42.54982217	     90.00000001	      0.00000000	      0.00000000	    -12.76504283	    -11.39826764	      4.32299629	     24.05080112	     90.00000001	      0.00000000	      0.00000000
      1.04000000	     -1.00614095	      1.05545043	     -7.32711495	     -0.03979396	      0.95862515	     -0.08614242	    -10.22899446	     -8.91784437	     -1.41595774	     30.85112183	      4.34652461	      0.53845365	      1.60483248	     18.67102044	     -7.68766227	     22.81682421	     -0.74966820	    -11.65795711	     21.20165884	     -2.58460652	      0.37003875	      1.20361570	     10.34044527	     -7.68766227	     -9.94842073	     -5.37289428	      6.66470147	      4.76519865	    -18.64177896	     17.31751659	     41.99839557	     90.00000001	      0.00000000	      0.00000000	    -12.26864978	    -11.45152985	      4.56510672	     23.94487019	     90.00000001	      0.00000000	      0.00000000
      1.05000000	     -1.15646944	      1.25590440	     -7.13131424	     -0.02835820	      0.96014211	     -0.08779701	     -8.68903799	     -9.21409072	     -0.88683731	     33.70302180	      4.39820106	      0.58822870	      0.06905040	     17.55346269	     -7.68516957	     22.22818976	     -0.34389720	    -11.74438867	     21.15414436	     -2.54906592	      0.36920947	      1.99462590	     10.64225046	     -7.68516957	     -9.83494492	     -5.60136813	      6.31239567	      4.30626949	    -18.46395617	     17.41435108	     41.61776182	     90.00000001	      0.00000000	      0.00000000	    -11.77722218	    -11.54712361	      4.64493238	     24.10733201	     90.00000001	      0.00000000	      0.00000000
      1.06000000	     -1.10765487	      1.26293803	     -6.91729023	     -0.01712584	      0.96184254	     -0.08932470	     -7.34674800	     -9.25189123	     -0.12402311	     36.42902917	      4.54587016	      0.63580650	     -0.78303852	     16.76700662	     -7.68393819	     21.38009263	     -0.18266491	    -11.84047230	     21.06931765	     -2.40849369	      0.36772896	      2.51757578	     11.00604681	     -7.68393819	     -9.99353835	     -5.61673108	      5.80629031	      4.03096462	    -18.33744712	     17.48497278	     41.32855245	     90.00000001	      0.00000000	      0.00000000	    -11.23941352	    -11.59833044	      4.69698636	     24.31965655	     90.00000001	      0.00000000	      0.00000000
